<svg version="1.1" xmlns="http://www.w3.org/2000/svg" xmlns:xlink="http://www.w3.org/1999/xlink" width="100%" height="100%" class="canvas"><defs></defs>

<g id="symbol" class="logo-entity" transform="scale(1)">
  <g class="logo-entity-inner">
    <g data-noun-id="22039" data-attribution="" transform="scale(0.3)">
      <g>
        <circle cx="-332.243" cy="261.297" r="5.175" transform="translate(342.4779968261719,-256.12200927734375)" fill="#ffffff"></circle>
        <path d="M-322.004,280.889v-6.924c0-2.98-1.753-5.9-5.242-5.9l-10.061-0.005c-3.178,0-5.171,2.589-5.171,5.823v7.007H-322.004z" transform="translate(342.4779968261719,-256.12200927734375)" fill="#ffffff"></path>
        <circle cx="-308.404" cy="261.297" r="5.175" transform="translate(342.4779968261719,-256.12200927734375)" fill="#ffffff"></circle>
        <path d="M-298.165,280.889v-6.924c0-2.98-1.753-5.9-5.241-5.9l-10.061-0.005c-3.179,0-5.171,2.589-5.171,5.823v7.007H-298.165z" transform="translate(342.4779968261719,-256.12200927734375)" fill="#ffffff"></path>
        <circle cx="-284.564" cy="261.297" r="5.175" transform="translate(342.4779968261719,-256.12200927734375)" fill="#ffffff"></circle>
        <path d="M-274.326,280.889v-6.924c0-2.98-1.753-5.9-5.241-5.9l-10.06-0.005c-3.179,0-5.173,2.589-5.173,5.823v7.007H-274.326z" transform="translate(342.4779968261719,-256.12200927734375)" fill="#ffffff"></path>
        <circle cx="-260.726" cy="261.297" r="5.175" transform="translate(342.4779968261719,-256.12200927734375)" fill="#ffffff"></circle>
        <path d="M-250.487,280.889v-6.924c0-2.98-1.752-5.9-5.24-5.9l-10.061-0.005c-3.179,0-5.173,2.589-5.173,5.823v7.007H-250.487z" transform="translate(342.4779968261719,-256.12200927734375)" fill="#ffffff"></path>
      </g>
      <g>
        <path d="M-264.699,307.397v10.125c0,0.65,2.496,0.65,2.496,0v-5.882c0-4.026,5.974-4.026,5.974,0V356h-27.762v-8.505   c0,0-12.47-7.699-12.47-12.314v-23.326c0-4.673,6.569-4.89,6.569,0v13.443c0,0.706,2.264,0.64,2.264-0.066v-35.729   c0-4.02,6.027-4.02,6.027,0v28.02c0,0.65,2.44,0.65,2.44,0v-13.81c0-4.026,6.026-4.026,6.026,0v13.81c0,0.65,2.408,0.65,2.408,0   v-10.125C-270.727,303.37-264.699,303.37-264.699,307.397z" transform="translate(342.4779968261719,-256.12200927734375)" fill="#ffffff"></path>
      </g>
    </g>
  </g>
</g>

</svg>